<svg xmlns="http://www.w3.org/2000/svg" viewBox="0 0 960 520" font-family="'Hiragino Sans', 'Yu Gothic', 'Noto Sans CJK JP', sans-serif">
  <defs>
    <style>
      .box { fill: #faf6ef; stroke: #1a1a1a; stroke-width: 1.5; }
      .cool { fill: #e6f4ea; stroke: #2e7d32; stroke-width: 1.5; }
      .cold { fill: #dfe9ff; stroke: #2c5ea9; stroke-width: 1.5; }
      .hot { fill: #fff1d6; stroke: #c0392b; stroke-width: 1.5; }
      .title { font-size: 16px; font-weight: 700; fill: #1a1a1a; }
      .head { font-size: 13px; font-weight: 700; fill: #1a1a1a; }
      .step { font-size: 12px; font-family: 'Hiragino Sans', 'Yu Gothic', 'Menlo', monospace; fill: #222; }
      .small { font-size: 11px; font-family: 'Hiragino Sans', 'Yu Gothic', 'Menlo', monospace; fill: #333; }
      .caption { font-size: 11px; fill: #555; font-style: italic; }
    </style>
  </defs>

  <text x="480" y="26" text-anchor="middle" class="title">MCP transports: stdio、Streamable HTTP、legacy SSE</text>

  <rect x="40" y="60" width="290" height="400" class="cool"/>
  <text x="185" y="82" text-anchor="middle" class="head">stdio（local）</text>
  <text x="56" y="108" class="step">child process</text>
  <text x="56" y="126" class="small">clientがserverをspawnし、</text>
  <text x="56" y="142" class="small">stdin/stdoutで会話</text>
  <text x="56" y="174" class="step">wire形式</text>
  <text x="56" y="192" class="small">1行1JSON, \n</text>
  <text x="56" y="208" class="small">stdoutはJSON-RPC専用</text>
  <text x="56" y="224" class="small">logはstderrへ</text>
  <text x="56" y="256" class="step">session</text>
  <text x="56" y="274" class="small">process = session</text>
  <text x="56" y="290" class="small">idは不要</text>
  <text x="56" y="322" class="step">auth</text>
  <text x="56" y="340" class="small">parent trustを継承</text>
  <text x="56" y="372" class="step">verdict</text>
  <text x="56" y="390" class="small">local serversのみ。</text>
  <text x="56" y="406" class="small">最も単純で信頼性が高い。</text>

  <rect x="345" y="60" width="290" height="400" class="cold"/>
  <text x="490" y="82" text-anchor="middle" class="head">Streamable HTTP（remote）</text>
  <text x="361" y="108" class="step">単一endpoint /mcp</text>
  <text x="361" y="126" class="small">POST : JSON-RPC request</text>
  <text x="361" y="142" class="small">GET  : open SSE stream</text>
  <text x="361" y="158" class="small">DELETE : terminate session</text>
  <text x="361" y="190" class="step">session</text>
  <text x="361" y="208" class="small">Mcp-Session-Id header</text>
  <text x="361" y="224" class="small">暗号学的random,</text>
  <text x="361" y="240" class="small">serverが割り当て</text>
  <text x="361" y="272" class="step">security</text>
  <text x="361" y="290" class="small">Origin許可リスト</text>
  <text x="361" y="306" class="small">DNS rebinding防御</text>
  <text x="361" y="322" class="small">OAuth 2.1 (Lesson 16)</text>
  <text x="361" y="354" class="step">再接続</text>
  <text x="361" y="372" class="small">同じsidでre-GET;</text>
  <text x="361" y="388" class="small">last-event-id replay</text>
  <text x="361" y="420" class="step">verdict</text>
  <text x="361" y="438" class="small">2026年の標準。</text>

  <rect x="650" y="60" width="290" height="400" class="hot"/>
  <text x="795" y="82" text-anchor="middle" class="head">legacy HTTP+SSE</text>
  <text x="666" y="108" class="step">2つのendpoint</text>
  <text x="666" y="126" class="small">POST /messages</text>
  <text x="666" y="142" class="small">GET  /sse (stream)</text>
  <text x="666" y="174" class="step">問題</text>
  <text x="666" y="192" class="small">CDN / WAFと相性が悪い</text>
  <text x="666" y="208" class="small">2つのsessionを追跡</text>
  <text x="666" y="224" class="small">長時間SSEがtimeout</text>
  <text x="666" y="256" class="step">非推奨化</text>
  <text x="666" y="274" class="small">Atlassian Rovo: 2026-06-30</text>
  <text x="666" y="290" class="small">Keboola: 2026-04-01</text>
  <text x="666" y="306" class="small">official specではLEGACY</text>
  <text x="666" y="338" class="step">移行</text>
  <text x="666" y="356" class="small">2 endpointsを1つへ統合;</text>
  <text x="666" y="372" class="small">fresh sidをgenerate;</text>
  <text x="666" y="388" class="small">add Origin checks</text>
  <text x="666" y="420" class="step">verdict</text>
  <text x="666" y="438" class="small">2026年半ば前にmigrate。</text>

  <text x="480" y="498" text-anchor="middle" class="caption">localはstdio、remoteはStreamable HTTP。SSE modeは一時的な橋渡し。</text>
</svg>
